<svg width="6" height="6" viewBox="0 0 6 6" fill="none" xmlns="http://www.w3.org/2000/svg">
<path d="M3.056 5.15346C2.62933 5.15346 2.24 5.05213 1.888 4.84946C1.536 4.64679 1.25867 4.36946 1.056 4.01746C0.853333 3.65479 0.752 3.25479 0.752 2.81746C0.752 2.38013 0.853333 1.98546 1.056 1.63346C1.25867 1.28146 1.536 1.00946 1.888 0.817459C2.24 0.614792 2.62933 0.513459 3.056 0.513459C3.48267 0.513459 3.872 0.614792 4.224 0.817459C4.576 1.00946 4.85333 1.28146 5.056 1.63346C5.26933 1.98546 5.376 2.38013 5.376 2.81746C5.376 3.25479 5.26933 3.65479 5.056 4.01746C4.85333 4.36946 4.576 4.64679 4.224 4.84946C3.872 5.05213 3.48267 5.15346 3.056 5.15346Z" fill="black"/>
</svg>
