<svg width="1920" height="376" viewBox="0 0 1920 376" fill="none" xmlns="http://www.w3.org/2000/svg">
<g clip-path="url(#clip0)">
<rect width="1920" height="376" fill="#F5F6F9"/>
<path d="M1425.88 167.808L1425.07 167.294L1425.59 166.486L1425.37 166.346L1424.85 167.154L1424.04 166.64L1423.9 166.86L1424.71 167.374L1424.2 168.182L1424.42 168.323L1424.93 167.515L1425.74 168.028L1425.88 167.808Z" fill="#3D5AFF"/>
<path d="M1603.98 299.186L1603.17 298.672L1603.69 297.864L1603.47 297.724L1602.95 298.532L1602.14 298.018L1602 298.238L1602.81 298.752L1602.3 299.56L1602.52 299.701L1603.03 298.893L1603.84 299.406L1603.98 299.186Z" fill="#3D5AFF"/>
<path d="M1486.04 226.305L1485.23 225.79L1485.75 224.982L1485.53 224.842L1485.01 225.65L1484.2 225.136L1484.06 225.356L1484.87 225.871L1484.36 226.679L1484.58 226.819L1485.09 226.011L1485.9 226.525L1486.04 226.305Z" fill="#3D5AFF"/>
<path d="M1388.68 219.19L1387.87 218.676L1388.38 217.868L1388.16 217.728L1387.65 218.536L1386.84 218.022L1386.7 218.242L1387.51 218.756L1386.99 219.564L1387.21 219.705L1387.73 218.897L1388.54 219.411L1388.68 219.19Z" fill="#3D5AFF"/>
<path d="M1461.5 257.133L1460.7 256.619L1461.21 255.811L1460.99 255.671L1460.47 256.479L1459.67 255.965L1459.53 256.185L1460.33 256.699L1459.82 257.507L1460.04 257.648L1460.55 256.84L1461.36 257.354L1461.5 257.133Z" fill="#3D5AFF"/>
<path d="M1389.98 258.938L1389.17 258.424L1389.69 257.616L1389.47 257.476L1388.95 258.284L1388.14 257.77L1388 257.99L1388.81 258.504L1388.3 259.312L1388.52 259.453L1389.03 258.645L1389.84 259.159L1389.98 258.938Z" fill="#3D5AFF"/>
<path d="M1556.89 223.143L1556.08 222.628L1556.6 221.82L1556.38 221.68L1555.86 222.488L1555.05 221.974L1554.91 222.194L1555.72 222.709L1555.21 223.517L1555.43 223.657L1555.94 222.849L1556.75 223.363L1556.89 223.143Z" fill="#3D5AFF"/>
<path d="M1372.98 147.727L1372.17 147.213L1372.69 146.405L1372.47 146.265L1371.95 147.073L1371.14 146.558L1371 146.779L1371.81 147.293L1371.3 148.101L1371.52 148.241L1372.03 147.433L1372.84 147.947L1372.98 147.727Z" fill="#3D5AFF"/>
<path d="M1500.98 307.66L1500.17 307.145L1500.69 306.337L1500.47 306.197L1499.95 307.005L1499.14 306.491L1499 306.711L1499.81 307.226L1499.3 308.034L1499.52 308.174L1500.03 307.366L1500.84 307.88L1500.98 307.66Z" fill="#3D5AFF"/>
<path d="M1444.88 184.203L1443.75 183.483L1444.47 182.352L1444.16 182.156L1443.44 183.287L1442.31 182.567L1442.11 182.876L1443.24 183.595L1442.52 184.727L1442.83 184.923L1443.55 183.792L1444.68 184.512L1444.88 184.203Z" fill="white"/>
<path d="M1565.77 288.12L1564.64 287.401L1565.36 286.269L1565.05 286.073L1564.33 287.204L1563.2 286.484L1563 286.793L1564.13 287.513L1563.41 288.644L1563.72 288.841L1564.44 287.709L1565.58 288.429L1565.77 288.12Z" fill="white"/>
<path d="M1357.8 199.152C1358.46 199.152 1358.99 198.621 1358.99 197.966C1358.99 197.311 1358.46 196.78 1357.8 196.78C1357.15 196.78 1356.62 197.311 1356.62 197.966C1356.62 198.621 1357.15 199.152 1357.8 199.152Z" fill="#3D5AFF"/>
<path d="M1487.19 368.941C1487.85 368.941 1488.38 368.41 1488.38 367.755C1488.38 367.1 1487.85 366.569 1487.19 366.569C1486.53 366.569 1486 367.1 1486 367.755C1486 368.41 1486.53 368.941 1487.19 368.941Z" fill="#3D5AFF"/>
<path d="M1446.19 142.282C1446.85 142.282 1447.38 141.751 1447.38 141.096C1447.38 140.441 1446.85 139.91 1446.19 139.91C1445.53 139.91 1445 140.441 1445 141.096C1445 141.751 1445.53 142.282 1446.19 142.282Z" fill="#3D5AFF"/>
<path d="M1441.19 304.333C1441.85 304.333 1442.38 303.802 1442.38 303.146C1442.38 302.491 1441.85 301.96 1441.19 301.96C1440.53 301.96 1440 302.491 1440 303.146C1440 303.802 1440.53 304.333 1441.19 304.333Z" fill="#3D5AFF"/>
<path d="M1426.67 202.709C1427.11 202.709 1427.47 202.355 1427.47 201.918C1427.47 201.481 1427.11 201.127 1426.67 201.127C1426.24 201.127 1425.88 201.481 1425.88 201.918C1425.88 202.355 1426.24 202.709 1426.67 202.709Z" fill="#3D5AFF"/>
<path d="M1524.79 306.719C1525.23 306.719 1525.59 306.365 1525.59 305.929C1525.59 305.492 1525.23 305.138 1524.79 305.138C1524.36 305.138 1524 305.492 1524 305.929C1524 306.365 1524.36 306.719 1524.79 306.719Z" fill="#3D5AFF"/>
<path d="M1507.81 237.49C1508.25 237.49 1508.6 237.136 1508.6 236.7C1508.6 236.263 1508.25 235.909 1507.81 235.909C1507.38 235.909 1507.02 236.263 1507.02 236.7C1507.02 237.136 1507.38 237.49 1507.81 237.49Z" fill="#FF6584"/>
<path d="M1386.7 194.409C1387.14 194.409 1387.49 194.055 1387.49 193.618C1387.49 193.181 1387.14 192.827 1386.7 192.827C1386.26 192.827 1385.91 193.181 1385.91 193.618C1385.91 194.055 1386.26 194.409 1386.7 194.409Z" fill="#FF6584"/>
<path d="M1506.79 354.381C1507.23 354.381 1507.59 354.027 1507.59 353.591C1507.59 353.154 1507.23 352.8 1506.79 352.8C1506.36 352.8 1506 353.154 1506 353.591C1506 354.027 1506.36 354.381 1506.79 354.381Z" fill="#FF6584"/>
<path d="M1425.79 121.367C1426.23 121.367 1426.59 121.013 1426.59 120.577C1426.59 120.14 1426.23 119.786 1425.79 119.786C1425.36 119.786 1425 120.14 1425 120.577C1425 121.013 1425.36 121.367 1425.79 121.367Z" fill="#FF6584"/>
<path d="M1607.79 272.826C1608.23 272.826 1608.59 272.472 1608.59 272.036C1608.59 271.599 1608.23 271.245 1607.79 271.245C1607.36 271.245 1607 271.599 1607 272.036C1607 272.472 1607.36 272.826 1607.79 272.826Z" fill="#3D5AFF"/>
<path d="M1411.79 166.911C1412.23 166.911 1412.59 166.557 1412.59 166.12C1412.59 165.684 1412.23 165.33 1411.79 165.33C1411.36 165.33 1411 165.684 1411 166.12C1411 166.557 1411.36 166.911 1411.79 166.911Z" fill="white"/>
<path d="M1531 271.639C1531.43 271.639 1531.79 271.285 1531.79 270.849C1531.79 270.412 1531.43 270.058 1531 270.058C1530.56 270.058 1530.21 270.412 1530.21 270.849C1530.21 271.285 1530.56 271.639 1531 271.639Z" fill="white"/>
<path d="M1531.96 212.195C1532.61 212.195 1533.14 211.664 1533.14 211.009C1533.14 210.354 1532.61 209.823 1531.96 209.823C1531.3 209.823 1530.77 210.354 1530.77 211.009C1530.77 211.664 1531.3 212.195 1531.96 212.195Z" fill="#3D5AFF"/>
<path d="M1433.01 247.371C1435.19 247.371 1436.96 245.602 1436.96 243.419C1436.96 241.236 1435.19 239.466 1433.01 239.466C1430.82 239.466 1429.05 241.236 1429.05 243.419C1429.05 245.602 1430.82 247.371 1433.01 247.371Z" fill="#3D5AFF"/>
<path d="M1480.9 201.523C1481.55 201.523 1482.09 200.992 1482.09 200.337C1482.09 199.682 1481.55 199.151 1480.9 199.151C1480.24 199.151 1479.71 199.682 1479.71 200.337C1479.71 200.992 1480.24 201.523 1480.9 201.523Z" fill="white"/>
<path d="M1598.28 332.507C1598.94 332.507 1599.47 331.976 1599.47 331.321C1599.47 330.666 1598.94 330.135 1598.28 330.135C1597.63 330.135 1597.1 330.666 1597.1 331.321C1597.1 331.976 1597.63 332.507 1598.28 332.507Z" fill="white"/>
<path d="M1851.98 222.927L1851.17 222.413L1851.69 221.605L1851.47 221.465L1850.95 222.273L1850.14 221.759L1850 221.979L1850.81 222.493L1850.3 223.301L1850.52 223.442L1851.03 222.633L1851.84 223.147L1851.98 222.927Z" fill="#3D5AFF"/>
<path d="M1835.43 297.21L1834.62 296.695L1835.13 295.887L1834.91 295.747L1834.4 296.555L1833.59 296.041L1833.45 296.261L1834.26 296.776L1833.74 297.584L1833.96 297.724L1834.48 296.916L1835.29 297.43L1835.43 297.21Z" fill="#3D5AFF"/>
<path d="M1606.98 10.037L1606.17 9.52271L1606.69 8.71465L1606.47 8.57471L1605.95 9.38276L1605.14 8.86844L1605 9.08863L1605.81 9.60295L1605.3 10.411L1605.52 10.5513L1606.03 9.74329L1606.84 10.2572L1606.98 10.037Z" fill="#3D5AFF"/>
<path d="M1810.89 328.039L1810.08 327.524L1810.6 326.716L1810.37 326.576L1809.86 327.385L1809.05 326.87L1808.91 327.09L1809.72 327.605L1809.2 328.413L1809.43 328.553L1809.94 327.745L1810.75 328.259L1810.89 328.039Z" fill="#3D5AFF"/>
<path d="M1743.21 313.415L1742.4 312.9L1742.91 312.092L1742.69 311.952L1742.18 312.76L1741.37 312.246L1741.23 312.466L1742.04 312.981L1741.52 313.789L1741.74 313.929L1742.26 313.121L1743.07 313.635L1743.21 313.415Z" fill="#3D5AFF"/>
<path d="M1726.58 246.223L1725.78 245.709L1726.29 244.901L1726.07 244.761L1725.56 245.569L1724.75 245.055L1724.61 245.275L1725.41 245.789L1724.9 246.597L1725.12 246.738L1725.63 245.93L1726.44 246.444L1726.58 246.223Z" fill="#3D5AFF"/>
<path d="M1794.26 255.108L1793.13 254.389L1793.85 253.257L1793.54 253.061L1792.82 254.192L1791.69 253.472L1791.49 253.781L1792.63 254.5L1791.91 255.632L1792.21 255.828L1792.94 254.697L1794.07 255.417L1794.26 255.108Z" fill="white"/>
<path d="M1649.19 376.355C1649.85 376.355 1650.38 375.824 1650.38 375.169C1650.38 374.514 1649.85 373.983 1649.19 373.983C1648.53 373.983 1648 374.514 1648 375.169C1648 375.824 1648.53 376.355 1649.19 376.355Z" fill="#3D5AFF"/>
<path d="M1733.19 229.133C1733.85 229.133 1734.38 228.602 1734.38 227.947C1734.38 227.292 1733.85 226.761 1733.19 226.761C1732.53 226.761 1732 227.292 1732 227.947C1732 228.602 1732.53 229.133 1733.19 229.133Z" fill="#3D5AFF"/>
<path d="M1787.93 226.58C1788.59 226.58 1789.12 226.049 1789.12 225.394C1789.12 224.739 1788.59 224.208 1787.93 224.208C1787.28 224.208 1786.75 224.739 1786.75 225.394C1786.75 226.049 1787.28 226.58 1787.93 226.58Z" fill="#3D5AFF"/>
<path d="M1776.06 273.614C1776.5 273.614 1776.85 273.26 1776.85 272.823C1776.85 272.386 1776.5 272.032 1776.06 272.032C1775.62 272.032 1775.27 272.386 1775.27 272.823C1775.27 273.26 1775.62 273.614 1776.06 273.614Z" fill="#3D5AFF"/>
<path d="M1857.2 308.396C1857.64 308.396 1857.99 308.042 1857.99 307.605C1857.99 307.168 1857.64 306.814 1857.2 306.814C1856.76 306.814 1856.41 307.168 1856.41 307.605C1856.41 308.042 1856.76 308.396 1857.2 308.396Z" fill="#FF6584"/>
<path d="M1736.08 265.314C1736.52 265.314 1736.87 264.96 1736.87 264.523C1736.87 264.086 1736.52 263.732 1736.08 263.732C1735.65 263.732 1735.29 264.086 1735.29 264.523C1735.29 264.96 1735.65 265.314 1736.08 265.314Z" fill="#FF6584"/>
<path d="M1785.56 201.284C1785.99 201.284 1786.35 200.93 1786.35 200.494C1786.35 200.057 1785.99 199.703 1785.56 199.703C1785.12 199.703 1784.77 200.057 1784.77 200.494C1784.77 200.93 1785.12 201.284 1785.56 201.284Z" fill="#FF6584"/>
<path d="M1763 211.561C1763.43 211.561 1763.79 211.207 1763.79 210.77C1763.79 210.333 1763.43 209.979 1763 209.979C1762.56 209.979 1762.21 210.333 1762.21 210.77C1762.21 211.207 1762.56 211.561 1763 211.561Z" fill="white"/>
<path d="M1881.34 283.1C1882 283.1 1882.53 282.569 1882.53 281.914C1882.53 281.259 1882 280.728 1881.34 280.728C1880.69 280.728 1880.15 281.259 1880.15 281.914C1880.15 282.569 1880.69 283.1 1881.34 283.1Z" fill="#3D5AFF"/>
<path d="M1802.58 287.448C1803.23 287.448 1803.77 286.917 1803.77 286.262C1803.77 285.607 1803.23 285.076 1802.58 285.076C1801.92 285.076 1801.39 285.607 1801.39 286.262C1801.39 286.917 1801.92 287.448 1802.58 287.448Z" fill="#3D5AFF"/>
<path d="M1782.39 318.276C1784.58 318.276 1786.35 316.507 1786.35 314.324C1786.35 312.141 1784.58 310.371 1782.39 310.371C1780.21 310.371 1778.43 312.141 1778.43 314.324C1778.43 316.507 1780.21 318.276 1782.39 318.276Z" fill="#3D5AFF"/>
<path d="M1830.28 272.428C1830.94 272.428 1831.47 271.897 1831.47 271.242C1831.47 270.587 1830.94 270.056 1830.28 270.056C1829.63 270.056 1829.1 270.587 1829.1 271.242C1829.1 271.897 1829.63 272.428 1830.28 272.428Z" fill="white"/>
<path d="M1619.26 131.573L1618.46 131.059L1618.97 130.251L1618.75 130.111L1618.23 130.919L1617.43 130.404L1617.29 130.625L1618.09 131.139L1617.58 131.947L1617.8 132.087L1618.31 131.279L1619.12 131.793L1619.26 131.573Z" fill="#3D5AFF"/>
<path d="M1679.43 190.069L1678.62 189.555L1679.13 188.747L1678.91 188.607L1678.4 189.415L1677.59 188.9L1677.45 189.121L1678.26 189.635L1677.74 190.443L1677.96 190.583L1678.48 189.775L1679.29 190.289L1679.43 190.069Z" fill="#3D5AFF"/>
<path d="M1582.06 182.955L1581.25 182.44L1581.76 181.632L1581.54 181.492L1581.03 182.301L1580.22 181.786L1580.08 182.006L1580.89 182.521L1580.37 183.329L1580.6 183.469L1581.11 182.661L1581.92 183.175L1582.06 182.955Z" fill="#3D5AFF"/>
<path d="M1654.89 220.898L1654.08 220.384L1654.59 219.576L1654.37 219.436L1653.86 220.244L1653.05 219.729L1652.91 219.949L1653.72 220.464L1653.2 221.272L1653.42 221.412L1653.94 220.604L1654.75 221.118L1654.89 220.898Z" fill="#3D5AFF"/>
<path d="M1750.27 186.907L1749.46 186.393L1749.98 185.585L1749.76 185.445L1749.24 186.253L1748.44 185.739L1748.29 185.959L1749.1 186.473L1748.59 187.281L1748.81 187.422L1749.32 186.614L1750.13 187.127L1750.27 186.907Z" fill="#3D5AFF"/>
<path d="M1638.26 147.967L1637.13 147.248L1637.85 146.116L1637.54 145.92L1636.82 147.051L1635.69 146.332L1635.49 146.64L1636.62 147.36L1635.9 148.491L1636.21 148.688L1636.93 147.556L1638.07 148.276L1638.26 147.967Z" fill="white"/>
<path d="M1482.5 146.594L1481.37 145.874L1482.09 144.743L1481.78 144.547L1481.06 145.678L1479.93 144.958L1479.73 145.267L1480.86 145.986L1480.14 147.118L1480.45 147.314L1481.17 146.183L1482.3 146.903L1482.5 146.594Z" fill="white"/>
<path d="M1312.5 234.504L1311.37 233.784L1312.09 232.653L1311.78 232.457L1311.06 233.588L1309.93 232.868L1309.73 233.177L1310.86 233.896L1310.14 235.028L1310.45 235.224L1311.17 234.093L1312.3 234.813L1312.5 234.504Z" fill="white"/>
<path d="M1576.5 248.273L1575.37 247.553L1576.09 246.422L1575.78 246.226L1575.06 247.357L1573.93 246.637L1573.73 246.946L1574.86 247.665L1574.14 248.797L1574.45 248.993L1575.17 247.862L1576.3 248.582L1576.5 248.273Z" fill="white"/>
<path d="M1518.5 113.76L1517.37 113.041L1518.09 111.909L1517.78 111.713L1517.06 112.844L1515.93 112.124L1515.73 112.433L1516.86 113.153L1516.14 114.284L1516.45 114.481L1517.17 113.349L1518.3 114.069L1518.5 113.76Z" fill="white"/>
<path d="M1701.2 201.255C1701.63 201.255 1701.99 200.901 1701.99 200.464C1701.99 200.028 1701.63 199.674 1701.2 199.674C1700.76 199.674 1700.4 200.028 1700.4 200.464C1700.4 200.901 1700.76 201.255 1701.2 201.255Z" fill="#FF6584"/>
<path d="M1580.08 158.173C1580.52 158.173 1580.87 157.819 1580.87 157.382C1580.87 156.946 1580.52 156.592 1580.08 156.592C1579.64 156.592 1579.29 156.946 1579.29 157.382C1579.29 157.819 1579.64 158.173 1580.08 158.173Z" fill="#FF6584"/>
<path d="M1564.79 324.725C1565.23 324.725 1565.58 324.371 1565.58 323.935C1565.58 323.498 1565.23 323.144 1564.79 323.144C1564.35 323.144 1564 323.498 1564 323.935C1564 324.371 1564.35 324.725 1564.79 324.725Z" fill="#FF6584"/>
<path d="M1629.56 94.1434C1629.99 94.1434 1630.35 93.7894 1630.35 93.3527C1630.35 92.916 1629.99 92.562 1629.56 92.562C1629.12 92.562 1628.76 92.916 1628.76 93.3527C1628.76 93.7894 1629.12 94.1434 1629.56 94.1434Z" fill="#FF6584"/>
<path d="M1473.79 92.7701C1474.23 92.7701 1474.58 92.4161 1474.58 91.9794C1474.58 91.5427 1474.23 91.1887 1473.79 91.1887C1473.35 91.1887 1473 91.5427 1473 91.9794C1473 92.4161 1473.35 92.7701 1473.79 92.7701Z" fill="#FF6584"/>
<path d="M1303.79 180.68C1304.23 180.68 1304.58 180.326 1304.58 179.889C1304.58 179.453 1304.23 179.099 1303.79 179.099C1303.35 179.099 1303 179.453 1303 179.889C1303 180.326 1303.35 180.68 1303.79 180.68Z" fill="#FF6584"/>
<path d="M1483.79 284.477C1484.23 284.477 1484.58 284.123 1484.58 283.686C1484.58 283.25 1484.23 282.896 1483.79 282.896C1483.35 282.896 1483 283.25 1483 283.686C1483 284.123 1483.35 284.477 1483.79 284.477Z" fill="#FF6584"/>
<path d="M1509.79 59.9363C1510.23 59.9363 1510.58 59.5823 1510.58 59.1457C1510.58 58.709 1510.23 58.355 1509.79 58.355C1509.35 58.355 1509 58.709 1509 59.1457C1509 59.5823 1509.35 59.9363 1509.79 59.9363Z" fill="#FF6584"/>
<path d="M1597.1 130.901C1597.54 130.901 1597.89 130.547 1597.89 130.111C1597.89 129.674 1597.54 129.32 1597.1 129.32C1596.66 129.32 1596.31 129.674 1596.31 130.111C1596.31 130.547 1596.66 130.901 1597.1 130.901Z" fill="#3D5AFF"/>
<path d="M1601.79 67.3504C1602.23 67.3504 1602.58 66.9964 1602.58 66.5597C1602.58 66.123 1602.23 65.769 1601.79 65.769C1601.35 65.769 1601 66.123 1601 66.5597C1601 66.9964 1601.35 67.3504 1601.79 67.3504Z" fill="white"/>
<path d="M1725.34 175.959C1726 175.959 1726.53 175.428 1726.53 174.773C1726.53 174.118 1726 173.587 1725.34 173.587C1724.68 173.587 1724.15 174.118 1724.15 174.773C1724.15 175.428 1724.68 175.959 1725.34 175.959Z" fill="#3D5AFF"/>
<path d="M1646.58 180.307C1647.23 180.307 1647.76 179.776 1647.76 179.121C1647.76 178.466 1647.23 177.935 1646.58 177.935C1645.92 177.935 1645.39 178.466 1645.39 179.121C1645.39 179.776 1645.92 180.307 1646.58 180.307Z" fill="#3D5AFF"/>
<path d="M1626.39 211.136C1628.58 211.136 1630.35 209.366 1630.35 207.183C1630.35 205 1628.58 203.231 1626.39 203.231C1624.2 203.231 1622.43 205 1622.43 207.183C1622.43 209.366 1624.2 211.136 1626.39 211.136Z" fill="#3D5AFF"/>
<path d="M1674.28 165.288C1674.94 165.288 1675.47 164.757 1675.47 164.102C1675.47 163.447 1674.94 162.916 1674.28 162.916C1673.63 162.916 1673.09 163.447 1673.09 164.102C1673.09 164.757 1673.63 165.288 1674.28 165.288Z" fill="white"/>
<path d="M1658.99 331.84C1659.65 331.84 1660.18 331.309 1660.18 330.654C1660.18 329.999 1659.65 329.468 1658.99 329.468C1658.34 329.468 1657.8 329.999 1657.8 330.654C1657.8 331.309 1658.34 331.84 1658.99 331.84Z" fill="white"/>
<path d="M1518.52 163.914C1519.17 163.914 1519.7 163.383 1519.7 162.728C1519.7 162.073 1519.17 161.542 1518.52 161.542C1517.86 161.542 1517.33 162.073 1517.33 162.728C1517.33 163.383 1517.86 163.914 1518.52 163.914Z" fill="white"/>
<path d="M1348.52 251.824C1349.17 251.824 1349.7 251.293 1349.7 250.638C1349.7 249.983 1349.17 249.452 1348.52 249.452C1347.86 249.452 1347.33 249.983 1347.33 250.638C1347.33 251.293 1347.86 251.824 1348.52 251.824Z" fill="white"/>
<path d="M1612.52 265.593C1613.17 265.593 1613.7 265.062 1613.7 264.407C1613.7 263.752 1613.17 263.221 1612.52 263.221C1611.86 263.221 1611.33 263.752 1611.33 264.407C1611.33 265.062 1611.86 265.593 1612.52 265.593Z" fill="white"/>
<path d="M1554.52 131.081C1555.17 131.081 1555.7 130.55 1555.7 129.895C1555.7 129.239 1555.17 128.708 1554.52 128.708C1553.86 128.708 1553.33 129.239 1553.33 129.895C1553.33 130.55 1553.86 131.081 1554.52 131.081Z" fill="white"/>
<path d="M1768.01 10.4138L1768.82 9.89944L1768.31 9.09137L1768.53 8.95142L1769.04 9.75949L1769.85 9.24515L1769.99 9.46536L1769.18 9.9797L1769.7 10.7878L1769.48 10.9281L1768.96 10.12L1768.15 10.634L1768.01 10.4138Z" fill="#3D5AFF"/>
<path d="M1707.85 68.9099L1708.66 68.3955L1708.14 67.5875L1708.36 67.4475L1708.88 68.2556L1709.69 67.7413L1709.83 67.9614L1709.02 68.4758L1709.53 69.2839L1709.31 69.4242L1708.8 68.6161L1707.99 69.1301L1707.85 68.9099Z" fill="#3D5AFF"/>
<path d="M1805.22 61.7956L1806.03 61.2813L1805.51 60.4732L1805.73 60.3333L1806.25 61.1413L1807.05 60.627L1807.2 60.8472L1806.39 61.3615L1806.9 62.1696L1806.68 62.31L1806.17 61.5019L1805.36 62.0158L1805.22 61.7956Z" fill="#3D5AFF"/>
<path d="M1732.39 99.7387L1733.2 99.2244L1732.68 98.4163L1732.9 98.2764L1733.42 99.0845L1734.23 98.5701L1734.37 98.7903L1733.56 99.3046L1734.07 100.113L1733.85 100.253L1733.34 99.445L1732.53 99.959L1732.39 99.7387Z" fill="#3D5AFF"/>
<path d="M1637 65.748L1637.81 65.2337L1637.3 64.4256L1637.52 64.2856L1638.03 65.0937L1638.84 64.5794L1638.98 64.7996L1638.17 65.3139L1638.69 66.122L1638.47 66.2624L1637.95 65.4543L1637.14 65.9682L1637 65.748Z" fill="#3D5AFF"/>
<path d="M1551 79.9411L1551.81 79.4268L1551.3 78.6187L1551.52 78.4788L1552.03 79.2868L1552.84 78.7725L1552.98 78.9927L1552.17 79.507L1552.69 80.3151L1552.47 80.4554L1551.95 79.6474L1551.14 80.1613L1551 79.9411Z" fill="#3D5AFF"/>
<path d="M1749.01 26.8081L1750.15 26.0885L1749.42 24.9571L1749.73 24.761L1750.45 25.8921L1751.59 25.1721L1751.78 25.4809L1750.65 26.2004L1751.37 27.3319L1751.06 27.5284L1750.34 26.3969L1749.21 27.1168L1749.01 26.8081Z" fill="white"/>
<path d="M1836.09 41.7571C1835.43 41.7571 1834.9 41.2261 1834.9 40.571C1834.9 39.916 1835.43 39.385 1836.09 39.385C1836.74 39.385 1837.28 39.916 1837.28 40.571C1837.28 41.2261 1836.74 41.7571 1836.09 41.7571Z" fill="#3D5AFF"/>
<path d="M1671.19 3.5327C1670.53 3.5327 1670 3.0017 1670 2.34667C1670 1.69165 1670.53 1.16064 1671.19 1.16064C1671.85 1.16064 1672.38 1.69165 1672.38 2.34667C1672.38 3.0017 1671.85 3.5327 1671.19 3.5327Z" fill="#3D5AFF"/>
<path d="M1573.19 45.8989C1572.53 45.8989 1572 45.3679 1572 44.7129C1572 44.0579 1572.53 43.5269 1573.19 43.5269C1573.85 43.5269 1574.38 44.0579 1574.38 44.7129C1574.38 45.3679 1573.85 45.8989 1573.19 45.8989Z" fill="#3D5AFF"/>
<path d="M1686.08 80.0955C1685.64 80.0955 1685.29 79.7415 1685.29 79.3048C1685.29 78.8682 1685.64 78.5142 1686.08 78.5142C1686.52 78.5142 1686.87 78.8682 1686.87 79.3048C1686.87 79.7415 1686.52 80.0955 1686.08 80.0955Z" fill="#FF6584"/>
<path d="M1807.19 37.014C1806.76 37.014 1806.4 36.66 1806.4 36.2233C1806.4 35.7866 1806.76 35.4326 1807.19 35.4326C1807.63 35.4326 1807.99 35.7866 1807.99 36.2233C1807.99 36.66 1807.63 37.014 1807.19 37.014Z" fill="#FF6584"/>
<path d="M1643.79 17.5701C1643.36 17.5701 1643 17.2161 1643 16.7795C1643 16.3428 1643.36 15.9888 1643.79 15.9888C1644.23 15.9888 1644.59 16.3428 1644.59 16.7795C1644.59 17.2161 1644.23 17.5701 1643.79 17.5701Z" fill="white"/>
<path d="M1661.94 54.8C1661.28 54.8 1660.75 54.269 1660.75 53.614C1660.75 52.959 1661.28 52.428 1661.94 52.428C1662.59 52.428 1663.12 52.959 1663.12 53.614C1663.12 54.269 1662.59 54.8 1661.94 54.8Z" fill="#3D5AFF"/>
<path d="M1760.89 89.9762C1758.7 89.9762 1756.93 88.2066 1756.93 86.0237C1756.93 83.8409 1758.7 82.0713 1760.89 82.0713C1763.07 82.0713 1764.84 83.8409 1764.84 86.0237C1764.84 88.2066 1763.07 89.9762 1760.89 89.9762Z" fill="#3D5AFF"/>
<path d="M1712.99 44.1284C1712.34 44.1284 1711.81 43.5974 1711.81 42.9424C1711.81 42.2873 1712.34 41.7563 1712.99 41.7563C1713.65 41.7563 1714.18 42.2873 1714.18 42.9424C1714.18 43.5974 1713.65 44.1284 1712.99 44.1284Z" fill="white"/>
<path d="M476.648 167.808L477.457 167.294L476.942 166.486L477.163 166.346L477.677 167.154L478.486 166.64L478.627 166.86L477.818 167.374L478.333 168.182L478.112 168.323L477.598 167.515L476.789 168.028L476.648 167.808Z" fill="#3D5AFF"/>
<path d="M298.548 299.186L299.357 298.672L298.842 297.864L299.063 297.724L299.578 298.532L300.387 298.018L300.527 298.238L299.718 298.752L300.233 299.56L300.012 299.701L299.498 298.893L298.689 299.406L298.548 299.186Z" fill="#3D5AFF"/>
<path d="M416.486 226.305L417.295 225.79L416.78 224.982L417.001 224.842L417.515 225.65L418.324 225.136L418.465 225.356L417.656 225.871L418.171 226.679L417.95 226.819L417.435 226.011L416.626 226.525L416.486 226.305Z" fill="#3D5AFF"/>
<path d="M513.853 219.19L514.662 218.676L514.147 217.868L514.368 217.728L514.882 218.536L515.692 218.022L515.832 218.242L515.023 218.756L515.538 219.564L515.317 219.705L514.803 218.897L513.994 219.411L513.853 219.19Z" fill="#3D5AFF"/>
<path d="M441.025 257.133L441.834 256.619L441.319 255.811L441.54 255.671L442.054 256.479L442.863 255.965L443.004 256.185L442.195 256.699L442.71 257.507L442.489 257.648L441.974 256.84L441.165 257.354L441.025 257.133Z" fill="#3D5AFF"/>
<path d="M512.548 258.938L513.357 258.424L512.842 257.616L513.063 257.476L513.578 258.284L514.387 257.77L514.527 257.99L513.718 258.504L514.233 259.312L514.012 259.453L513.498 258.645L512.689 259.159L512.548 258.938Z" fill="#3D5AFF"/>
<path d="M345.638 223.143L346.447 222.628L345.932 221.82L346.153 221.68L346.668 222.488L347.477 221.974L347.617 222.194L346.808 222.709L347.323 223.517L347.102 223.657L346.588 222.849L345.779 223.363L345.638 223.143Z" fill="#3D5AFF"/>
<path d="M529.548 147.727L530.357 147.213L529.842 146.405L530.063 146.265L530.578 147.073L531.387 146.558L531.527 146.779L530.718 147.293L531.233 148.101L531.012 148.241L530.498 147.433L529.689 147.947L529.548 147.727Z" fill="#3D5AFF"/>
<path d="M401.548 307.66L402.357 307.145L401.842 306.337L402.063 306.197L402.578 307.005L403.387 306.491L403.527 306.711L402.718 307.226L403.233 308.034L403.012 308.174L402.498 307.366L401.689 307.88L401.548 307.66Z" fill="#3D5AFF"/>
<path d="M457.649 184.203L458.782 183.483L458.061 182.352L458.37 182.156L459.091 183.287L460.223 182.567L460.42 182.876L459.287 183.595L460.008 184.727L459.699 184.923L458.978 183.792L457.846 184.512L457.649 184.203Z" fill="white"/>
<path d="M336.757 288.12L337.89 287.401L337.169 286.269L337.477 286.073L338.198 287.204L339.331 286.484L339.527 286.793L338.395 287.513L339.115 288.644L338.807 288.841L338.086 287.709L336.953 288.429L336.757 288.12Z" fill="white"/>
<path d="M544.725 199.152C544.069 199.152 543.537 198.621 543.537 197.966C543.537 197.311 544.069 196.78 544.725 196.78C545.381 196.78 545.912 197.311 545.912 197.966C545.912 198.621 545.381 199.152 544.725 199.152Z" fill="#3D5AFF"/>
<path d="M415.34 368.941C414.684 368.941 414.153 368.41 414.153 367.755C414.153 367.1 414.684 366.569 415.34 366.569C415.996 366.569 416.527 367.1 416.527 367.755C416.527 368.41 415.996 368.941 415.34 368.941Z" fill="#3D5AFF"/>
<path d="M456.34 142.282C455.684 142.282 455.153 141.751 455.153 141.096C455.153 140.441 455.684 139.91 456.34 139.91C456.996 139.91 457.527 140.441 457.527 141.096C457.527 141.751 456.996 142.282 456.34 142.282Z" fill="#3D5AFF"/>
<path d="M461.34 304.333C460.684 304.333 460.153 303.802 460.153 303.146C460.153 302.491 460.684 301.96 461.34 301.96C461.996 301.96 462.527 302.491 462.527 303.146C462.527 303.802 461.996 304.333 461.34 304.333Z" fill="#3D5AFF"/>
<path d="M475.855 202.709C475.418 202.709 475.063 202.355 475.063 201.918C475.063 201.481 475.418 201.127 475.855 201.127C476.292 201.127 476.646 201.481 476.646 201.918C476.646 202.355 476.292 202.709 475.855 202.709Z" fill="#3D5AFF"/>
<path d="M377.736 306.719C377.299 306.719 376.944 306.365 376.944 305.929C376.944 305.492 377.299 305.138 377.736 305.138C378.173 305.138 378.527 305.492 378.527 305.929C378.527 306.365 378.173 306.719 377.736 306.719Z" fill="#3D5AFF"/>
<path d="M394.716 237.49C394.279 237.49 393.925 237.136 393.925 236.7C393.925 236.263 394.279 235.909 394.716 235.909C395.153 235.909 395.508 236.263 395.508 236.7C395.508 237.136 395.153 237.49 394.716 237.49Z" fill="#FF6584"/>
<path d="M515.831 194.409C515.394 194.409 515.04 194.055 515.04 193.618C515.04 193.181 515.394 192.827 515.831 192.827C516.269 192.827 516.623 193.181 516.623 193.618C516.623 194.055 516.269 194.409 515.831 194.409Z" fill="#FF6584"/>
<path d="M395.736 354.381C395.299 354.381 394.944 354.027 394.944 353.591C394.944 353.154 395.299 352.8 395.736 352.8C396.173 352.8 396.527 353.154 396.527 353.591C396.527 354.027 396.173 354.381 395.736 354.381Z" fill="#FF6584"/>
<path d="M476.736 121.367C476.299 121.367 475.944 121.013 475.944 120.577C475.944 120.14 476.299 119.786 476.736 119.786C477.173 119.786 477.527 120.14 477.527 120.577C477.527 121.013 477.173 121.367 476.736 121.367Z" fill="#FF6584"/>
<path d="M294.736 272.826C294.299 272.826 293.944 272.472 293.944 272.036C293.944 271.599 294.299 271.245 294.736 271.245C295.173 271.245 295.527 271.599 295.527 272.036C295.527 272.472 295.173 272.826 294.736 272.826Z" fill="#3D5AFF"/>
<path d="M490.736 166.911C490.299 166.911 489.944 166.557 489.944 166.12C489.944 165.684 490.299 165.33 490.736 165.33C491.173 165.33 491.527 165.684 491.527 166.12C491.527 166.557 491.173 166.911 490.736 166.911Z" fill="white"/>
<path d="M371.533 271.639C371.095 271.639 370.741 271.285 370.741 270.849C370.741 270.412 371.095 270.058 371.533 270.058C371.97 270.058 372.324 270.412 372.324 270.849C372.324 271.285 371.97 271.639 371.533 271.639Z" fill="white"/>
<path d="M370.572 212.195C369.917 212.195 369.385 211.664 369.385 211.009C369.385 210.354 369.917 209.823 370.572 209.823C371.228 209.823 371.76 210.354 371.76 211.009C371.76 211.664 371.228 212.195 370.572 212.195Z" fill="#3D5AFF"/>
<path d="M469.522 247.371C467.337 247.371 465.564 245.602 465.564 243.419C465.564 241.236 467.337 239.466 469.522 239.466C471.708 239.466 473.48 241.236 473.48 243.419C473.48 245.602 471.708 247.371 469.522 247.371Z" fill="#3D5AFF"/>
<path d="M421.631 201.523C420.975 201.523 420.443 200.992 420.443 200.337C420.443 199.682 420.975 199.151 421.631 199.151C422.287 199.151 422.818 199.682 422.818 200.337C422.818 200.992 422.287 201.523 421.631 201.523Z" fill="white"/>
<path d="M304.246 332.507C303.59 332.507 303.059 331.976 303.059 331.321C303.059 330.666 303.59 330.135 304.246 330.135C304.902 330.135 305.434 330.666 305.434 331.321C305.434 331.976 304.902 332.507 304.246 332.507Z" fill="white"/>
<path d="M50.5483 222.927L51.3574 222.413L50.8424 221.605L51.0633 221.465L51.5778 222.273L52.3868 221.759L52.5273 221.979L51.7183 222.493L52.2333 223.301L52.0124 223.442L51.4979 222.633L50.6889 223.147L50.5483 222.927Z" fill="#3D5AFF"/>
<path d="M67.1011 297.21L67.9101 296.695L67.3952 295.887L67.616 295.747L68.1306 296.555L68.9396 296.041L69.0801 296.261L68.2711 296.776L68.786 297.584L68.5652 297.724L68.0506 296.916L67.2416 297.43L67.1011 297.21Z" fill="#3D5AFF"/>
<path d="M295.548 10.037L296.357 9.52271L295.842 8.71465L296.063 8.57471L296.578 9.38276L297.387 8.86844L297.527 9.08863L296.718 9.60295L297.233 10.411L297.012 10.5513L296.498 9.74329L295.689 10.2572L295.548 10.037Z" fill="#3D5AFF"/>
<path d="M91.6401 328.039L92.4492 327.524L91.9342 326.716L92.1551 326.576L92.6696 327.385L93.4786 326.87L93.6191 327.09L92.8101 327.605L93.3251 328.413L93.1042 328.553L92.5897 327.745L91.7807 328.259L91.6401 328.039Z" fill="#3D5AFF"/>
<path d="M159.322 313.415L160.131 312.9L159.616 312.092L159.837 311.952L160.351 312.76L161.16 312.246L161.301 312.466L160.492 312.981L161.007 313.789L160.786 313.929L160.271 313.121L159.462 313.635L159.322 313.415Z" fill="#3D5AFF"/>
<path d="M175.945 246.223L176.754 245.709L176.239 244.901L176.46 244.761L176.974 245.569L177.783 245.055L177.924 245.275L177.115 245.789L177.63 246.597L177.409 246.738L176.894 245.93L176.085 246.444L175.945 246.223Z" fill="#3D5AFF"/>
<path d="M108.265 255.108L109.397 254.389L108.677 253.257L108.985 253.061L109.706 254.192L110.838 253.472L111.035 253.781L109.902 254.5L110.623 255.632L110.314 255.828L109.594 254.697L108.461 255.417L108.265 255.108Z" fill="white"/>
<path d="M253.34 376.355C252.684 376.355 252.153 375.824 252.153 375.169C252.153 374.514 252.684 373.983 253.34 373.983C253.996 373.983 254.527 374.514 254.527 375.169C254.527 375.824 253.996 376.355 253.34 376.355Z" fill="#3D5AFF"/>
<path d="M169.34 229.133C168.684 229.133 168.153 228.602 168.153 227.947C168.153 227.292 168.684 226.761 169.34 226.761C169.996 226.761 170.527 227.292 170.527 227.947C170.527 228.602 169.996 229.133 169.34 229.133Z" fill="#3D5AFF"/>
<path d="M114.596 226.58C113.94 226.58 113.408 226.049 113.408 225.394C113.408 224.739 113.94 224.208 114.596 224.208C115.252 224.208 115.783 224.739 115.783 225.394C115.783 226.049 115.252 226.58 114.596 226.58Z" fill="#3D5AFF"/>
<path d="M126.47 273.614C126.033 273.614 125.678 273.26 125.678 272.823C125.678 272.386 126.033 272.032 126.47 272.032C126.907 272.032 127.262 272.386 127.262 272.823C127.262 273.26 126.907 273.614 126.47 273.614Z" fill="#3D5AFF"/>
<path d="M45.3314 308.396C44.8942 308.396 44.5398 308.042 44.5398 307.605C44.5398 307.168 44.8942 306.814 45.3314 306.814C45.7686 306.814 46.123 307.168 46.123 307.605C46.123 308.042 45.7686 308.396 45.3314 308.396Z" fill="#FF6584"/>
<path d="M166.447 265.314C166.009 265.314 165.655 264.96 165.655 264.523C165.655 264.086 166.009 263.732 166.447 263.732C166.884 263.732 167.238 264.086 167.238 264.523C167.238 264.96 166.884 265.314 166.447 265.314Z" fill="#FF6584"/>
<path d="M116.972 201.284C116.535 201.284 116.18 200.93 116.18 200.494C116.18 200.057 116.535 199.703 116.972 199.703C117.409 199.703 117.764 200.057 117.764 200.494C117.764 200.93 117.409 201.284 116.972 201.284Z" fill="#FF6584"/>
<path d="M139.533 211.561C139.095 211.561 138.741 211.207 138.741 210.77C138.741 210.333 139.095 209.979 139.533 209.979C139.97 209.979 140.324 210.333 140.324 210.77C140.324 211.207 139.97 211.561 139.533 211.561Z" fill="white"/>
<path d="M21.1876 283.1C20.5319 283.1 20.0002 282.569 20.0002 281.914C20.0002 281.259 20.5319 280.728 21.1876 280.728C21.8434 280.728 22.375 281.259 22.375 281.914C22.375 282.569 21.8434 283.1 21.1876 283.1Z" fill="#3D5AFF"/>
<path d="M99.9513 287.448C99.2955 287.448 98.7639 286.917 98.7639 286.262C98.7639 285.607 99.2955 285.076 99.9513 285.076C100.607 285.076 101.139 285.607 101.139 286.262C101.139 286.917 100.607 287.448 99.9513 287.448Z" fill="#3D5AFF"/>
<path d="M120.138 318.276C117.952 318.276 116.18 316.507 116.18 314.324C116.18 312.141 117.952 310.371 120.138 310.371C122.324 310.371 124.096 312.141 124.096 314.324C124.096 316.507 122.324 318.276 120.138 318.276Z" fill="#3D5AFF"/>
<path d="M72.2462 272.428C71.5904 272.428 71.0587 271.897 71.0587 271.242C71.0587 270.587 71.5904 270.056 72.2462 270.056C72.902 270.056 73.4336 270.587 73.4336 271.242C73.4336 271.897 72.902 272.428 72.2462 272.428Z" fill="white"/>
<path d="M283.265 131.573L284.074 131.059L283.559 130.251L283.78 130.111L284.295 130.919L285.104 130.404L285.244 130.625L284.435 131.139L284.95 131.947L284.729 132.087L284.215 131.279L283.406 131.793L283.265 131.573Z" fill="#3D5AFF"/>
<path d="M223.103 190.069L223.912 189.555L223.397 188.747L223.618 188.607L224.133 189.415L224.942 188.9L225.082 189.121L224.273 189.635L224.788 190.443L224.567 190.583L224.053 189.775L223.244 190.289L223.103 190.069Z" fill="#3D5AFF"/>
<path d="M320.47 182.955L321.279 182.44L320.764 181.632L320.985 181.492L321.5 182.301L322.309 181.786L322.449 182.006L321.64 182.521L322.155 183.329L321.934 183.469L321.42 182.661L320.611 183.175L320.47 182.955Z" fill="#3D5AFF"/>
<path d="M247.642 220.898L248.451 220.384L247.936 219.576L248.157 219.436L248.672 220.244L249.481 219.729L249.621 219.949L248.812 220.464L249.327 221.272L249.106 221.412L248.592 220.604L247.783 221.118L247.642 220.898Z" fill="#3D5AFF"/>
<path d="M152.255 186.907L153.064 186.393L152.549 185.585L152.77 185.445L153.285 186.253L154.094 185.739L154.234 185.959L153.425 186.473L153.94 187.281L153.719 187.422L153.205 186.614L152.396 187.127L152.255 186.907Z" fill="#3D5AFF"/>
<path d="M264.266 147.967L265.399 147.248L264.679 146.116L264.987 145.92L265.708 147.051L266.84 146.332L267.037 146.64L265.904 147.36L266.625 148.491L266.316 148.688L265.596 147.556L264.463 148.276L264.266 147.967Z" fill="white"/>
<path d="M420.03 146.594L421.163 145.874L420.442 144.743L420.751 144.547L421.472 145.678L422.604 144.958L422.801 145.267L421.668 145.986L422.389 147.118L422.08 147.314L421.359 146.183L420.227 146.903L420.03 146.594Z" fill="white"/>
<path d="M590.03 234.504L591.163 233.784L590.442 232.653L590.751 232.457L591.472 233.588L592.604 232.868L592.801 233.177L591.668 233.896L592.389 235.028L592.08 235.224L591.359 234.093L590.227 234.813L590.03 234.504Z" fill="white"/>
<path d="M326.03 248.273L327.163 247.553L326.442 246.422L326.751 246.226L327.472 247.357L328.604 246.637L328.801 246.946L327.668 247.665L328.389 248.797L328.08 248.993L327.359 247.862L326.227 248.582L326.03 248.273Z" fill="white"/>
<path d="M384.03 113.76L385.163 113.041L384.442 111.909L384.751 111.713L385.472 112.844L386.604 112.124L386.801 112.433L385.668 113.153L386.389 114.284L386.08 114.481L385.359 113.349L384.227 114.069L384.03 113.76Z" fill="white"/>
<path d="M201.333 201.255C200.896 201.255 200.542 200.901 200.542 200.464C200.542 200.028 200.896 199.674 201.333 199.674C201.771 199.674 202.125 200.028 202.125 200.464C202.125 200.901 201.771 201.255 201.333 201.255Z" fill="#FF6584"/>
<path d="M322.449 158.173C322.011 158.173 321.657 157.819 321.657 157.382C321.657 156.946 322.011 156.592 322.449 156.592C322.886 156.592 323.24 156.946 323.24 157.382C323.24 157.819 322.886 158.173 322.449 158.173Z" fill="#FF6584"/>
<path d="M337.738 324.725C337.3 324.725 336.946 324.371 336.946 323.935C336.946 323.498 337.3 323.144 337.738 323.144C338.175 323.144 338.529 323.498 338.529 323.935C338.529 324.371 338.175 324.725 337.738 324.725Z" fill="#FF6584"/>
<path d="M272.974 94.1434C272.537 94.1434 272.182 93.7894 272.182 93.3527C272.182 92.916 272.537 92.562 272.974 92.562C273.411 92.562 273.766 92.916 273.766 93.3527C273.766 93.7894 273.411 94.1434 272.974 94.1434Z" fill="#FF6584"/>
<path d="M428.738 92.7701C428.3 92.7701 427.946 92.4161 427.946 91.9794C427.946 91.5427 428.3 91.1887 428.738 91.1887C429.175 91.1887 429.529 91.5427 429.529 91.9794C429.529 92.4161 429.175 92.7701 428.738 92.7701Z" fill="#FF6584"/>
<path d="M598.738 180.68C598.3 180.68 597.946 180.326 597.946 179.889C597.946 179.453 598.3 179.099 598.738 179.099C599.175 179.099 599.529 179.453 599.529 179.889C599.529 180.326 599.175 180.68 598.738 180.68Z" fill="#FF6584"/>
<path d="M418.738 284.477C418.3 284.477 417.946 284.123 417.946 283.686C417.946 283.25 418.3 282.896 418.738 282.896C419.175 282.896 419.529 283.25 419.529 283.686C419.529 284.123 419.175 284.477 418.738 284.477Z" fill="#FF6584"/>
<path d="M392.738 59.9363C392.3 59.9363 391.946 59.5823 391.946 59.1457C391.946 58.709 392.3 58.355 392.738 58.355C393.175 58.355 393.529 58.709 393.529 59.1457C393.529 59.5823 393.175 59.9363 392.738 59.9363Z" fill="#FF6584"/>
<path d="M305.429 130.901C304.992 130.901 304.637 130.547 304.637 130.111C304.637 129.674 304.992 129.32 305.429 129.32C305.866 129.32 306.221 129.674 306.221 130.111C306.221 130.547 305.866 130.901 305.429 130.901Z" fill="#3D5AFF"/>
<path d="M300.738 67.3504C300.301 67.3504 299.946 66.9964 299.946 66.5597C299.946 66.123 300.301 65.769 300.738 65.769C301.175 65.769 301.529 66.123 301.529 66.5597C301.529 66.9964 301.175 67.3504 300.738 67.3504Z" fill="white"/>
<path d="M177.19 175.959C176.534 175.959 176.002 175.428 176.002 174.773C176.002 174.118 176.534 173.587 177.19 173.587C177.845 173.587 178.377 174.118 178.377 174.773C178.377 175.428 177.845 175.959 177.19 175.959Z" fill="#3D5AFF"/>
<path d="M255.953 180.307C255.297 180.307 254.766 179.776 254.766 179.121C254.766 178.466 255.297 177.935 255.953 177.935C256.609 177.935 257.141 178.466 257.141 179.121C257.141 179.776 256.609 180.307 255.953 180.307Z" fill="#3D5AFF"/>
<path d="M276.14 211.136C273.954 211.136 272.182 209.366 272.182 207.183C272.182 205 273.954 203.231 276.14 203.231C278.326 203.231 280.098 205 280.098 207.183C280.098 209.366 278.326 211.136 276.14 211.136Z" fill="#3D5AFF"/>
<path d="M228.248 165.288C227.592 165.288 227.061 164.757 227.061 164.102C227.061 163.447 227.592 162.916 228.248 162.916C228.904 162.916 229.436 163.447 229.436 164.102C229.436 164.757 228.904 165.288 228.248 165.288Z" fill="white"/>
<path d="M243.537 331.84C242.881 331.84 242.35 331.309 242.35 330.654C242.35 329.999 242.881 329.468 243.537 329.468C244.193 329.468 244.725 329.999 244.725 330.654C244.725 331.309 244.193 331.84 243.537 331.84Z" fill="white"/>
<path d="M384.012 163.914C383.356 163.914 382.824 163.383 382.824 162.728C382.824 162.073 383.356 161.542 384.012 161.542C384.668 161.542 385.199 162.073 385.199 162.728C385.199 163.383 384.668 163.914 384.012 163.914Z" fill="white"/>
<path d="M554.012 251.824C553.356 251.824 552.824 251.293 552.824 250.638C552.824 249.983 553.356 249.452 554.012 249.452C554.668 249.452 555.199 249.983 555.199 250.638C555.199 251.293 554.668 251.824 554.012 251.824Z" fill="white"/>
<path d="M290.012 265.593C289.356 265.593 288.824 265.062 288.824 264.407C288.824 263.752 289.356 263.221 290.012 263.221C290.668 263.221 291.199 263.752 291.199 264.407C291.199 265.062 290.668 265.593 290.012 265.593Z" fill="white"/>
<path d="M348.012 131.081C347.356 131.081 346.824 130.55 346.824 129.895C346.824 129.239 347.356 128.708 348.012 128.708C348.668 128.708 349.199 129.239 349.199 129.895C349.199 130.55 348.668 131.081 348.012 131.081Z" fill="white"/>
<path d="M134.518 10.4138L133.709 9.89944L134.224 9.09137L134.003 8.95142L133.489 9.75949L132.68 9.24515L132.539 9.46536L133.348 9.9797L132.833 10.7878L133.054 10.9281L133.569 10.12L134.378 10.634L134.518 10.4138Z" fill="#3D5AFF"/>
<path d="M194.68 68.9099L193.871 68.3955L194.386 67.5875L194.165 67.4475L193.651 68.2556L192.842 67.7413L192.701 67.9614L193.51 68.4758L192.995 69.2839L193.216 69.4242L193.731 68.6161L194.54 69.1301L194.68 68.9099Z" fill="#3D5AFF"/>
<path d="M97.313 61.7956L96.504 61.2813L97.0189 60.4732L96.7981 60.3333L96.2835 61.1413L95.4745 60.627L95.334 60.8472L96.143 61.3615L95.6281 62.1696L95.8489 62.31L96.3635 61.5019L97.1725 62.0158L97.313 61.7956Z" fill="#3D5AFF"/>
<path d="M170.141 99.7387L169.332 99.2244L169.847 98.4163L169.626 98.2764L169.112 99.0845L168.303 98.5701L168.162 98.7903L168.971 99.3046L168.456 100.113L168.677 100.253L169.192 99.445L170.001 99.959L170.141 99.7387Z" fill="#3D5AFF"/>
<path d="M265.528 65.748L264.719 65.2337L265.234 64.4256L265.013 64.2856L264.498 65.0937L263.689 64.5794L263.549 64.7996L264.358 65.3139L263.843 66.122L264.064 66.2624L264.578 65.4543L265.387 65.9682L265.528 65.748Z" fill="#3D5AFF"/>
<path d="M351.528 79.9411L350.719 79.4268L351.234 78.6187L351.013 78.4788L350.498 79.2868L349.689 78.7725L349.549 78.9927L350.358 79.507L349.843 80.3151L350.064 80.4554L350.578 79.6474L351.387 80.1613L351.528 79.9411Z" fill="#3D5AFF"/>
<path d="M153.517 26.8081L152.384 26.0885L153.105 24.9571L152.796 24.761L152.075 25.8921L150.943 25.1721L150.746 25.4809L151.879 26.2004L151.158 27.3319L151.467 27.5284L152.188 26.3969L153.32 27.1168L153.517 26.8081Z" fill="white"/>
<path d="M66.4413 41.7571C67.0971 41.7571 67.6287 41.2261 67.6287 40.571C67.6287 39.916 67.0971 39.385 66.4413 39.385C65.7855 39.385 65.2539 39.916 65.2539 40.571C65.2539 41.2261 65.7855 41.7571 66.4413 41.7571Z" fill="#3D5AFF"/>
<path d="M231.34 3.5327C231.995 3.5327 232.527 3.0017 232.527 2.34667C232.527 1.69165 231.995 1.16064 231.34 1.16064C230.684 1.16064 230.152 1.69165 230.152 2.34667C230.152 3.0017 230.684 3.5327 231.34 3.5327Z" fill="#3D5AFF"/>
<path d="M329.34 45.8989C329.995 45.8989 330.527 45.3679 330.527 44.7129C330.527 44.0579 329.995 43.5269 329.34 43.5269C328.684 43.5269 328.152 44.0579 328.152 44.7129C328.152 45.3679 328.684 45.8989 329.34 45.8989Z" fill="#3D5AFF"/>
<path d="M216.45 80.0955C216.887 80.0955 217.241 79.7415 217.241 79.3048C217.241 78.8682 216.887 78.5142 216.45 78.5142C216.013 78.5142 215.658 78.8682 215.658 79.3048C215.658 79.7415 216.013 80.0955 216.45 80.0955Z" fill="#FF6584"/>
<path d="M95.3346 37.014C95.7718 37.014 96.1262 36.66 96.1262 36.2233C96.1262 35.7866 95.7718 35.4326 95.3346 35.4326C94.8974 35.4326 94.543 35.7866 94.543 36.2233C94.543 36.66 94.8974 37.014 95.3346 37.014Z" fill="#FF6584"/>
<path d="M258.735 17.5701C259.172 17.5701 259.526 17.2161 259.526 16.7795C259.526 16.3428 259.172 15.9888 258.735 15.9888C258.298 15.9888 257.943 16.3428 257.943 16.7795C257.943 17.2161 258.298 17.5701 258.735 17.5701Z" fill="white"/>
<path d="M240.594 54.8C241.249 54.8 241.781 54.269 241.781 53.614C241.781 52.959 241.249 52.428 240.594 52.428C239.938 52.428 239.406 52.959 239.406 53.614C239.406 54.269 239.938 54.8 240.594 54.8Z" fill="#3D5AFF"/>
<path d="M141.644 89.9762C143.83 89.9762 145.602 88.2066 145.602 86.0237C145.602 83.8409 143.83 82.0713 141.644 82.0713C139.458 82.0713 137.686 83.8409 137.686 86.0237C137.686 88.2066 139.458 89.9762 141.644 89.9762Z" fill="#3D5AFF"/>
<path d="M189.535 44.1284C190.191 44.1284 190.723 43.5974 190.723 42.9424C190.723 42.2873 190.191 41.7563 189.535 41.7563C188.879 41.7563 188.348 42.2873 188.348 42.9424C188.348 43.5974 188.879 44.1284 189.535 44.1284Z" fill="white"/>
</g>
<defs>
<clipPath id="clip0">
<rect width="1920" height="376" fill="white"/>
</clipPath>
</defs>
</svg>
